<svg width="803" height="866" viewBox="0 0 803 866" fill="none" xmlns="http://www.w3.org/2000/svg">
<g clip-path="url(#clip0_5534_355)">
<path d="M402.6 147.205C585.682 147.205 734.1 295.623 734.1 478.705C734.1 661.787 585.682 810.205 402.6 810.205C219.517 810.205 71.0996 661.787 71.0996 478.705C71.0997 295.623 219.517 147.205 402.6 147.205Z" stroke="#836AFF" stroke-width="40"/>
<path d="M738.905 221.995C735.903 226.63 729.595 227.403 725.243 224.003C711.322 213.127 680.382 188.954 644.449 160.88C601.787 127.548 575.673 107.146 563.665 97.7644C559.313 94.3642 558.527 88.049 562.299 84.0148C601.5 42.0872 667.108 36.453 713.403 72.6225C759.698 108.792 770.103 173.814 738.905 221.995Z" fill="#836AFF"/>
<path d="M237.59 78.4255C241.501 82.3256 240.945 88.656 236.714 92.206C223.181 103.561 193.104 128.799 158.172 158.111C116.699 192.911 91.3138 214.211 79.6403 224.007C75.4095 227.557 69.0687 227.013 65.9069 222.485C33.046 175.423 41.1756 110.077 86.18 72.3136C131.184 34.5504 196.949 37.8915 237.59 78.4255Z" fill="#836AFF"/>
<line x1="197.957" y1="198.461" x2="153.957" y2="154.461" stroke="#836AFF" stroke-width="40"/>
<line x1="651.242" y1="154.461" x2="607.242" y2="198.461" stroke="#836AFF" stroke-width="40"/>
<line x1="557.073" y1="783.499" x2="596.928" y2="837.356" stroke="#836AFF" stroke-width="40" stroke-linecap="round"/>
<line x1="208.163" y1="837.764" x2="248.485" y2="784.256" stroke="#836AFF" stroke-width="40" stroke-linecap="round"/>
<line x1="406.1" y1="131.319" x2="406.1" y2="99.3191" stroke="#836AFF" stroke-width="40" stroke-linecap="round"/>
<line x1="357.1" y1="83.3191" x2="448.1" y2="83.3191" stroke="#836AFF" stroke-width="40" stroke-linecap="round"/>
<path d="M441.435 491.043L447.547 488.027L453.392 484.07L458.83 479.194L463.719 473.442L467.926 466.878L471.321 459.586L473.79 451.669L475.229 443.249L475.552 434.464L474.69 425.462L472.597 416.408L469.248 407.472L464.642 398.828L458.803 390.654L451.778 383.127L443.643 376.416L434.494 370.685L424.454 366.083L413.664 362.744L402.288 360.786L390.505 360.302L378.51 361.364L366.508 364.018L354.712 368.28L343.341 374.139L332.61 381.555L322.735 390.456L313.919 400.744L306.357 412.29L300.225 424.938L295.681 438.508L292.861 452.798L291.872 467.587L292.794 482.637L295.675 497.697L300.53 512.511L307.34 526.817L316.053 540.354L326.578 552.869L338.795 564.117L352.547 573.868L367.648 581.912L383.883 588.063L401.011 592.163L418.769 594.081L436.878 593.725L455.043 591.037L472.961 585.996L490.326 578.624L506.832 568.98L522.181 557.165L536.087 543.319L548.281 527.619L558.516 510.28L566.573 491.548L572.264 471.699L575.436 451.035L575.975 429.877L573.809 408.564L568.909 387.444L561.292 366.871L551.02 347.196L538.201 328.765L522.989 311.909L505.58 296.941L486.211 284.149L465.158 273.792L442.729 266.091L419.263 261.232L395.122 259.353L370.687 260.548L346.353 264.863L322.519 272.291L299.585 282.774L277.944 296.203L257.976 312.417L240.04 331.208L224.468 352.319L211.56 375.451L201.577 400.267L194.739 426.394L191.215 453.433L191.126 480.96L194.537 508.536L201.456 535.716L211.835 562.048L225.569 587.092L242.494 610.417L262.392 631.614L284.993 650.302L309.979 666.135L336.984 678.805L365.607 688.055L395.412 693.675L425.935 695.514L456.696 693.479L487.2 687.538L516.95 677.723L545.453 664.13L572.228 646.916" stroke="#836AFF" stroke-width="40" stroke-linecap="round" stroke-linejoin="round"/>
</g>
<defs>
<clipPath id="clip0_5534_355">
<rect width="802.054" height="865.773" fill="white"/>
</clipPath>
</defs>
</svg>
